G04 #@! TF.FileFunction,Copper,L1,Top,Signal*
%FSLAX46Y46*%
G04 Gerber Fmt 4.6, Leading zero omitted, Abs format (unit mm)*
G04 Created by KiCad (PCBNEW 4.0.1-stable) date 08/09/2016 11:32:39 PM*
%MOMM*%
G01*
G04 APERTURE LIST*
%ADD10C,0.100000*%
%ADD11R,2.032000X2.032000*%
%ADD12O,2.032000X2.032000*%
%ADD13R,1.300000X1.300000*%
%ADD14C,1.300000*%
%ADD15R,1.400000X1.400000*%
%ADD16C,1.400000*%
%ADD17O,2.300000X1.600000*%
%ADD18C,1.998980*%
%ADD19C,1.510000*%
%ADD20R,1.510000X1.510000*%
%ADD21C,0.600000*%
%ADD22C,0.250000*%
%ADD23C,0.350000*%
G04 APERTURE END LIST*
D10*
D11*
X113284000Y-82296000D03*
D12*
X113284000Y-84836000D03*
D13*
X127508000Y-98552000D03*
D14*
X125008000Y-98552000D03*
D13*
X134620000Y-98552000D03*
D14*
X132120000Y-98552000D03*
D15*
X140208000Y-98044000D03*
D16*
X145208000Y-98044000D03*
D13*
X134112000Y-86360000D03*
D14*
X139112000Y-86360000D03*
D11*
X113030000Y-90170000D03*
D12*
X113030000Y-92710000D03*
D17*
X119888000Y-83312000D03*
X119888000Y-85852000D03*
X119888000Y-88392000D03*
X119888000Y-90932000D03*
X127508000Y-90932000D03*
X127508000Y-88392000D03*
X127508000Y-85852000D03*
X127508000Y-83312000D03*
D11*
X151892000Y-95504000D03*
D12*
X151892000Y-98044000D03*
D18*
X120650000Y-99060000D03*
X113030000Y-99060000D03*
D19*
X151892000Y-86360000D03*
D20*
X146812000Y-86360000D03*
D19*
X149352000Y-88900000D03*
D21*
X138176000Y-94996000D03*
X122936000Y-90932000D03*
X125984000Y-94488000D03*
X129032000Y-94996000D03*
X145288000Y-92456000D03*
D22*
X127508000Y-88392000D02*
X128524000Y-89408000D01*
X128524000Y-89408000D02*
X129032000Y-89408000D01*
X129032000Y-89408000D02*
X129032000Y-92456000D01*
X129032000Y-92456000D02*
X127508000Y-93980000D01*
X127508000Y-93980000D02*
X127508000Y-98552000D01*
X113284000Y-99060000D02*
X113030000Y-99060000D01*
X138176000Y-94996000D02*
X134620000Y-98552000D01*
X122936000Y-90932000D02*
X125984000Y-93980000D01*
X125984000Y-93980000D02*
X125984000Y-94488000D01*
X129032000Y-94996000D02*
X132080000Y-98044000D01*
X132080000Y-98044000D02*
X132080000Y-98552000D01*
X132080000Y-98552000D02*
X132120000Y-98552000D01*
X134112000Y-86360000D02*
X140208000Y-92456000D01*
X140208000Y-92456000D02*
X140208000Y-98044000D01*
X139112000Y-86360000D02*
X139192000Y-86360000D01*
X139192000Y-86360000D02*
X145288000Y-92456000D01*
D23*
G36*
X154182000Y-101350000D02*
X110994000Y-101350000D01*
X110994000Y-100206702D01*
X111995021Y-100206702D01*
X112086664Y-100492792D01*
X112706777Y-100744726D01*
X113376098Y-100740176D01*
X113973336Y-100492792D01*
X114064979Y-100206702D01*
X113030000Y-99171723D01*
X111995021Y-100206702D01*
X110994000Y-100206702D01*
X110994000Y-98736777D01*
X111345274Y-98736777D01*
X111349824Y-99406098D01*
X111597208Y-100003336D01*
X111883298Y-100094979D01*
X112918277Y-99060000D01*
X113141723Y-99060000D01*
X114176702Y-100094979D01*
X114462792Y-100003336D01*
X114710672Y-99393200D01*
X118967219Y-99393200D01*
X119222823Y-100011809D01*
X119695702Y-100485514D01*
X120313864Y-100742197D01*
X120983200Y-100742781D01*
X121601809Y-100487177D01*
X122075514Y-100014298D01*
X122311365Y-99446303D01*
X124225419Y-99446303D01*
X124274395Y-99696123D01*
X124768074Y-99889770D01*
X125298279Y-99879753D01*
X125741605Y-99696123D01*
X125790581Y-99446303D01*
X125008000Y-98663723D01*
X124225419Y-99446303D01*
X122311365Y-99446303D01*
X122332197Y-99396136D01*
X122332781Y-98726800D01*
X122161420Y-98312074D01*
X123670230Y-98312074D01*
X123680247Y-98842279D01*
X123863877Y-99285605D01*
X124113697Y-99334581D01*
X124896277Y-98552000D01*
X124113697Y-97769419D01*
X123863877Y-97818395D01*
X123670230Y-98312074D01*
X122161420Y-98312074D01*
X122077177Y-98108191D01*
X121627469Y-97657697D01*
X124225419Y-97657697D01*
X125008000Y-98440277D01*
X125790581Y-97657697D01*
X125741605Y-97407877D01*
X125247926Y-97214230D01*
X124717721Y-97224247D01*
X124274395Y-97407877D01*
X124225419Y-97657697D01*
X121627469Y-97657697D01*
X121604298Y-97634486D01*
X120986136Y-97377803D01*
X120316800Y-97377219D01*
X119698191Y-97632823D01*
X119224486Y-98105702D01*
X118967803Y-98723864D01*
X118967219Y-99393200D01*
X114710672Y-99393200D01*
X114714726Y-99383223D01*
X114710176Y-98713902D01*
X114462792Y-98116664D01*
X114176702Y-98025021D01*
X113141723Y-99060000D01*
X112918277Y-99060000D01*
X111883298Y-98025021D01*
X111597208Y-98116664D01*
X111345274Y-98736777D01*
X110994000Y-98736777D01*
X110994000Y-97913298D01*
X111995021Y-97913298D01*
X113030000Y-98948277D01*
X114064979Y-97913298D01*
X113973336Y-97627208D01*
X113353223Y-97375274D01*
X112683902Y-97379824D01*
X112086664Y-97627208D01*
X111995021Y-97913298D01*
X110994000Y-97913298D01*
X110994000Y-93053523D01*
X111366085Y-93053523D01*
X111624204Y-93664127D01*
X112096342Y-94129473D01*
X112686478Y-94373909D01*
X112951000Y-94236207D01*
X112951000Y-92789000D01*
X113109000Y-92789000D01*
X113109000Y-94236207D01*
X113373522Y-94373909D01*
X113963658Y-94129473D01*
X114435796Y-93664127D01*
X114693915Y-93053523D01*
X114556418Y-92789000D01*
X113109000Y-92789000D01*
X112951000Y-92789000D01*
X111503582Y-92789000D01*
X111366085Y-93053523D01*
X110994000Y-93053523D01*
X110994000Y-89154000D01*
X111317620Y-89154000D01*
X111317620Y-91186000D01*
X111365245Y-91439104D01*
X111514829Y-91671565D01*
X111629941Y-91750218D01*
X111624204Y-91755873D01*
X111366085Y-92366477D01*
X111503582Y-92631000D01*
X112951000Y-92631000D01*
X112951000Y-92611000D01*
X113109000Y-92611000D01*
X113109000Y-92631000D01*
X114556418Y-92631000D01*
X114693915Y-92366477D01*
X114435796Y-91755873D01*
X114430224Y-91750382D01*
X114531565Y-91685171D01*
X114687515Y-91456931D01*
X114731102Y-91241690D01*
X118087697Y-91241690D01*
X118137654Y-91426533D01*
X118433499Y-91924778D01*
X118897494Y-92271881D01*
X119459000Y-92415000D01*
X119809000Y-92415000D01*
X119809000Y-91011000D01*
X119967000Y-91011000D01*
X119967000Y-92415000D01*
X120317000Y-92415000D01*
X120878506Y-92271881D01*
X121342501Y-91924778D01*
X121638346Y-91426533D01*
X121688303Y-91241690D01*
X121618287Y-91126673D01*
X121952830Y-91126673D01*
X122102167Y-91488097D01*
X122378448Y-91764861D01*
X122739611Y-91914829D01*
X122776177Y-91914861D01*
X125045697Y-94184381D01*
X125001171Y-94291611D01*
X125000830Y-94682673D01*
X125150167Y-95044097D01*
X125426448Y-95320861D01*
X125787611Y-95470829D01*
X126178673Y-95471170D01*
X126540097Y-95321833D01*
X126700000Y-95162209D01*
X126700000Y-97235350D01*
X126604896Y-97253245D01*
X126372435Y-97402829D01*
X126216485Y-97631069D01*
X126169873Y-97861247D01*
X126152123Y-97818395D01*
X125902303Y-97769419D01*
X125119723Y-98552000D01*
X125902303Y-99334581D01*
X126152123Y-99285605D01*
X126169173Y-99242139D01*
X126209245Y-99455104D01*
X126358829Y-99687565D01*
X126587069Y-99843515D01*
X126858000Y-99898380D01*
X128158000Y-99898380D01*
X128411104Y-99850755D01*
X128643565Y-99701171D01*
X128799515Y-99472931D01*
X128854380Y-99202000D01*
X128854380Y-97902000D01*
X128806755Y-97648896D01*
X128657171Y-97416435D01*
X128428931Y-97260485D01*
X128316000Y-97237616D01*
X128316000Y-95670136D01*
X128474448Y-95828861D01*
X128835611Y-95978829D01*
X128872177Y-95978861D01*
X130902179Y-98008863D01*
X130787232Y-98285687D01*
X130786769Y-98815987D01*
X130989279Y-99306097D01*
X131363930Y-99681403D01*
X131853687Y-99884768D01*
X132383987Y-99885231D01*
X132874097Y-99682721D01*
X133249403Y-99308070D01*
X133279803Y-99234859D01*
X133321245Y-99455104D01*
X133470829Y-99687565D01*
X133699069Y-99843515D01*
X133970000Y-99898380D01*
X135270000Y-99898380D01*
X135523104Y-99850755D01*
X135755565Y-99701171D01*
X135911515Y-99472931D01*
X135966380Y-99202000D01*
X135966380Y-98348304D01*
X138335546Y-95979139D01*
X138370673Y-95979170D01*
X138732097Y-95829833D01*
X139008861Y-95553552D01*
X139158829Y-95192389D01*
X139159170Y-94801327D01*
X139009833Y-94439903D01*
X138733552Y-94163139D01*
X138372389Y-94013171D01*
X137981327Y-94012830D01*
X137619903Y-94162167D01*
X137343139Y-94438448D01*
X137193171Y-94799611D01*
X137193139Y-94836176D01*
X134823696Y-97205620D01*
X133970000Y-97205620D01*
X133716896Y-97253245D01*
X133484435Y-97402829D01*
X133328485Y-97631069D01*
X133280235Y-97869333D01*
X133250721Y-97797903D01*
X132876070Y-97422597D01*
X132406155Y-97227471D01*
X130015139Y-94836455D01*
X130015170Y-94801327D01*
X129865833Y-94439903D01*
X129589552Y-94163139D01*
X129228389Y-94013171D01*
X128837327Y-94012830D01*
X128475903Y-94162167D01*
X128316000Y-94321791D01*
X128316000Y-94314684D01*
X129603342Y-93027343D01*
X129720375Y-92852190D01*
X129778495Y-92765208D01*
X129840000Y-92456000D01*
X129840000Y-89408000D01*
X129778495Y-89098792D01*
X129603342Y-88836658D01*
X129341208Y-88661505D01*
X129323984Y-88658079D01*
X129376911Y-88392000D01*
X129264024Y-87824480D01*
X128942550Y-87343361D01*
X128611260Y-87122000D01*
X128942550Y-86900639D01*
X129264024Y-86419520D01*
X129376911Y-85852000D01*
X129348666Y-85710000D01*
X132765620Y-85710000D01*
X132765620Y-87010000D01*
X132813245Y-87263104D01*
X132962829Y-87495565D01*
X133191069Y-87651515D01*
X133462000Y-87706380D01*
X134315696Y-87706380D01*
X139400000Y-92790684D01*
X139400000Y-96667942D01*
X139254896Y-96695245D01*
X139022435Y-96844829D01*
X138866485Y-97073069D01*
X138811620Y-97344000D01*
X138811620Y-98744000D01*
X138859245Y-98997104D01*
X139008829Y-99229565D01*
X139237069Y-99385515D01*
X139508000Y-99440380D01*
X140908000Y-99440380D01*
X141161104Y-99392755D01*
X141393565Y-99243171D01*
X141549515Y-99014931D01*
X141604380Y-98744000D01*
X141604380Y-98317889D01*
X143824760Y-98317889D01*
X144034866Y-98826383D01*
X144423570Y-99215767D01*
X144931697Y-99426760D01*
X145481889Y-99427240D01*
X145990383Y-99217134D01*
X146379767Y-98828430D01*
X146562847Y-98387523D01*
X150228085Y-98387523D01*
X150486204Y-98998127D01*
X150958342Y-99463473D01*
X151548478Y-99707909D01*
X151813000Y-99570207D01*
X151813000Y-98123000D01*
X151971000Y-98123000D01*
X151971000Y-99570207D01*
X152235522Y-99707909D01*
X152825658Y-99463473D01*
X153297796Y-98998127D01*
X153555915Y-98387523D01*
X153418418Y-98123000D01*
X151971000Y-98123000D01*
X151813000Y-98123000D01*
X150365582Y-98123000D01*
X150228085Y-98387523D01*
X146562847Y-98387523D01*
X146590760Y-98320303D01*
X146591240Y-97770111D01*
X146381134Y-97261617D01*
X145992430Y-96872233D01*
X145484303Y-96661240D01*
X144934111Y-96660760D01*
X144425617Y-96870866D01*
X144036233Y-97259570D01*
X143825240Y-97767697D01*
X143824760Y-98317889D01*
X141604380Y-98317889D01*
X141604380Y-97344000D01*
X141556755Y-97090896D01*
X141407171Y-96858435D01*
X141178931Y-96702485D01*
X141016000Y-96669491D01*
X141016000Y-94488000D01*
X150179620Y-94488000D01*
X150179620Y-96520000D01*
X150227245Y-96773104D01*
X150376829Y-97005565D01*
X150491941Y-97084218D01*
X150486204Y-97089873D01*
X150228085Y-97700477D01*
X150365582Y-97965000D01*
X151813000Y-97965000D01*
X151813000Y-97945000D01*
X151971000Y-97945000D01*
X151971000Y-97965000D01*
X153418418Y-97965000D01*
X153555915Y-97700477D01*
X153297796Y-97089873D01*
X153292224Y-97084382D01*
X153393565Y-97019171D01*
X153549515Y-96790931D01*
X153604380Y-96520000D01*
X153604380Y-94488000D01*
X153556755Y-94234896D01*
X153407171Y-94002435D01*
X153178931Y-93846485D01*
X152908000Y-93791620D01*
X150876000Y-93791620D01*
X150622896Y-93839245D01*
X150390435Y-93988829D01*
X150234485Y-94217069D01*
X150179620Y-94488000D01*
X141016000Y-94488000D01*
X141016000Y-92456000D01*
X140954495Y-92146792D01*
X140954495Y-92146791D01*
X140779342Y-91884658D01*
X135518671Y-86623987D01*
X137778769Y-86623987D01*
X137981279Y-87114097D01*
X138355930Y-87489403D01*
X138845687Y-87692768D01*
X139375987Y-87693231D01*
X139380629Y-87691313D01*
X144304861Y-92615545D01*
X144304830Y-92650673D01*
X144454167Y-93012097D01*
X144730448Y-93288861D01*
X145091611Y-93438829D01*
X145482673Y-93439170D01*
X145844097Y-93289833D01*
X146120861Y-93013552D01*
X146270829Y-92652389D01*
X146271170Y-92261327D01*
X146121833Y-91899903D01*
X145845552Y-91623139D01*
X145484389Y-91473171D01*
X145447823Y-91473139D01*
X143159465Y-89184781D01*
X147913751Y-89184781D01*
X148132212Y-89713497D01*
X148536375Y-90118366D01*
X149064709Y-90337750D01*
X149636781Y-90338249D01*
X150165497Y-90119788D01*
X150570366Y-89715625D01*
X150789750Y-89187291D01*
X150790249Y-88615219D01*
X150571788Y-88086503D01*
X150167625Y-87681634D01*
X149639291Y-87462250D01*
X149067219Y-87461751D01*
X148538503Y-87680212D01*
X148133634Y-88084375D01*
X147914250Y-88612709D01*
X147913751Y-89184781D01*
X143159465Y-89184781D01*
X140444904Y-86470220D01*
X140445231Y-86096013D01*
X140242721Y-85605903D01*
X140241820Y-85605000D01*
X145360620Y-85605000D01*
X145360620Y-87115000D01*
X145408245Y-87368104D01*
X145557829Y-87600565D01*
X145786069Y-87756515D01*
X146057000Y-87811380D01*
X147567000Y-87811380D01*
X147820104Y-87763755D01*
X148052565Y-87614171D01*
X148208515Y-87385931D01*
X148219809Y-87330158D01*
X151033565Y-87330158D01*
X151095370Y-87590870D01*
X151627043Y-87802033D01*
X152199054Y-87793659D01*
X152688630Y-87590870D01*
X152750435Y-87330158D01*
X151892000Y-86471723D01*
X151033565Y-87330158D01*
X148219809Y-87330158D01*
X148263380Y-87115000D01*
X148263380Y-86095043D01*
X150449967Y-86095043D01*
X150458341Y-86667054D01*
X150661130Y-87156630D01*
X150921842Y-87218435D01*
X151780277Y-86360000D01*
X152003723Y-86360000D01*
X152862158Y-87218435D01*
X153122870Y-87156630D01*
X153334033Y-86624957D01*
X153325659Y-86052946D01*
X153122870Y-85563370D01*
X152862158Y-85501565D01*
X152003723Y-86360000D01*
X151780277Y-86360000D01*
X150921842Y-85501565D01*
X150661130Y-85563370D01*
X150449967Y-86095043D01*
X148263380Y-86095043D01*
X148263380Y-85605000D01*
X148222896Y-85389842D01*
X151033565Y-85389842D01*
X151892000Y-86248277D01*
X152750435Y-85389842D01*
X152688630Y-85129130D01*
X152156957Y-84917967D01*
X151584946Y-84926341D01*
X151095370Y-85129130D01*
X151033565Y-85389842D01*
X148222896Y-85389842D01*
X148215755Y-85351896D01*
X148066171Y-85119435D01*
X147837931Y-84963485D01*
X147567000Y-84908620D01*
X146057000Y-84908620D01*
X145803896Y-84956245D01*
X145571435Y-85105829D01*
X145415485Y-85334069D01*
X145360620Y-85605000D01*
X140241820Y-85605000D01*
X139868070Y-85230597D01*
X139378313Y-85027232D01*
X138848013Y-85026769D01*
X138357903Y-85229279D01*
X137982597Y-85603930D01*
X137779232Y-86093687D01*
X137778769Y-86623987D01*
X135518671Y-86623987D01*
X135458380Y-86563696D01*
X135458380Y-85710000D01*
X135410755Y-85456896D01*
X135261171Y-85224435D01*
X135032931Y-85068485D01*
X134762000Y-85013620D01*
X133462000Y-85013620D01*
X133208896Y-85061245D01*
X132976435Y-85210829D01*
X132820485Y-85439069D01*
X132765620Y-85710000D01*
X129348666Y-85710000D01*
X129264024Y-85284480D01*
X128942550Y-84803361D01*
X128611260Y-84582000D01*
X128942550Y-84360639D01*
X129264024Y-83879520D01*
X129376911Y-83312000D01*
X129264024Y-82744480D01*
X128942550Y-82263361D01*
X128461431Y-81941887D01*
X127893911Y-81829000D01*
X127122089Y-81829000D01*
X126554569Y-81941887D01*
X126073450Y-82263361D01*
X125751976Y-82744480D01*
X125639089Y-83312000D01*
X125751976Y-83879520D01*
X126073450Y-84360639D01*
X126404740Y-84582000D01*
X126073450Y-84803361D01*
X125751976Y-85284480D01*
X125639089Y-85852000D01*
X125751976Y-86419520D01*
X126073450Y-86900639D01*
X126404740Y-87122000D01*
X126073450Y-87343361D01*
X125751976Y-87824480D01*
X125639089Y-88392000D01*
X125751976Y-88959520D01*
X126073450Y-89440639D01*
X126404740Y-89662000D01*
X126073450Y-89883361D01*
X125751976Y-90364480D01*
X125639089Y-90932000D01*
X125751976Y-91499520D01*
X126073450Y-91980639D01*
X126554569Y-92302113D01*
X127122089Y-92415000D01*
X127893911Y-92415000D01*
X127939355Y-92405961D01*
X126936658Y-93408658D01*
X126761505Y-93670791D01*
X126761505Y-93670792D01*
X126746000Y-93748741D01*
X126730495Y-93670792D01*
X126730495Y-93670791D01*
X126555342Y-93408658D01*
X123919139Y-90772455D01*
X123919170Y-90737327D01*
X123769833Y-90375903D01*
X123493552Y-90099139D01*
X123132389Y-89949171D01*
X122741327Y-89948830D01*
X122379903Y-90098167D01*
X122103139Y-90374448D01*
X121953171Y-90735611D01*
X121952830Y-91126673D01*
X121618287Y-91126673D01*
X121547870Y-91011000D01*
X119967000Y-91011000D01*
X119809000Y-91011000D01*
X118228130Y-91011000D01*
X118087697Y-91241690D01*
X114731102Y-91241690D01*
X114742380Y-91186000D01*
X114742380Y-89154000D01*
X114694755Y-88900896D01*
X114545171Y-88668435D01*
X114316931Y-88512485D01*
X114046000Y-88457620D01*
X112014000Y-88457620D01*
X111760896Y-88505245D01*
X111528435Y-88654829D01*
X111372485Y-88883069D01*
X111317620Y-89154000D01*
X110994000Y-89154000D01*
X110994000Y-88392000D01*
X118019089Y-88392000D01*
X118131976Y-88959520D01*
X118453450Y-89440639D01*
X118794955Y-89668826D01*
X118433499Y-89939222D01*
X118137654Y-90437467D01*
X118087697Y-90622310D01*
X118228130Y-90853000D01*
X119809000Y-90853000D01*
X119809000Y-90833000D01*
X119967000Y-90833000D01*
X119967000Y-90853000D01*
X121547870Y-90853000D01*
X121688303Y-90622310D01*
X121638346Y-90437467D01*
X121342501Y-89939222D01*
X120981045Y-89668826D01*
X121322550Y-89440639D01*
X121644024Y-88959520D01*
X121756911Y-88392000D01*
X121644024Y-87824480D01*
X121322550Y-87343361D01*
X120981045Y-87115174D01*
X121342501Y-86844778D01*
X121638346Y-86346533D01*
X121688303Y-86161690D01*
X121547870Y-85931000D01*
X119967000Y-85931000D01*
X119967000Y-85951000D01*
X119809000Y-85951000D01*
X119809000Y-85931000D01*
X118228130Y-85931000D01*
X118087697Y-86161690D01*
X118137654Y-86346533D01*
X118433499Y-86844778D01*
X118794955Y-87115174D01*
X118453450Y-87343361D01*
X118131976Y-87824480D01*
X118019089Y-88392000D01*
X110994000Y-88392000D01*
X110994000Y-85179523D01*
X111620085Y-85179523D01*
X111878204Y-85790127D01*
X112350342Y-86255473D01*
X112940478Y-86499909D01*
X113205000Y-86362207D01*
X113205000Y-84915000D01*
X113363000Y-84915000D01*
X113363000Y-86362207D01*
X113627522Y-86499909D01*
X114217658Y-86255473D01*
X114689796Y-85790127D01*
X114947915Y-85179523D01*
X114810418Y-84915000D01*
X113363000Y-84915000D01*
X113205000Y-84915000D01*
X111757582Y-84915000D01*
X111620085Y-85179523D01*
X110994000Y-85179523D01*
X110994000Y-81280000D01*
X111571620Y-81280000D01*
X111571620Y-83312000D01*
X111619245Y-83565104D01*
X111768829Y-83797565D01*
X111883941Y-83876218D01*
X111878204Y-83881873D01*
X111620085Y-84492477D01*
X111757582Y-84757000D01*
X113205000Y-84757000D01*
X113205000Y-84737000D01*
X113363000Y-84737000D01*
X113363000Y-84757000D01*
X114810418Y-84757000D01*
X114947915Y-84492477D01*
X114689796Y-83881873D01*
X114684224Y-83876382D01*
X114785565Y-83811171D01*
X114941515Y-83582931D01*
X114996380Y-83312000D01*
X118019089Y-83312000D01*
X118131976Y-83879520D01*
X118453450Y-84360639D01*
X118794955Y-84588826D01*
X118433499Y-84859222D01*
X118137654Y-85357467D01*
X118087697Y-85542310D01*
X118228130Y-85773000D01*
X119809000Y-85773000D01*
X119809000Y-85753000D01*
X119967000Y-85753000D01*
X119967000Y-85773000D01*
X121547870Y-85773000D01*
X121688303Y-85542310D01*
X121638346Y-85357467D01*
X121342501Y-84859222D01*
X120981045Y-84588826D01*
X121322550Y-84360639D01*
X121644024Y-83879520D01*
X121756911Y-83312000D01*
X121644024Y-82744480D01*
X121322550Y-82263361D01*
X120841431Y-81941887D01*
X120273911Y-81829000D01*
X119502089Y-81829000D01*
X118934569Y-81941887D01*
X118453450Y-82263361D01*
X118131976Y-82744480D01*
X118019089Y-83312000D01*
X114996380Y-83312000D01*
X114996380Y-81280000D01*
X114948755Y-81026896D01*
X114799171Y-80794435D01*
X114570931Y-80638485D01*
X114300000Y-80583620D01*
X112268000Y-80583620D01*
X112014896Y-80631245D01*
X111782435Y-80780829D01*
X111626485Y-81009069D01*
X111571620Y-81280000D01*
X110994000Y-81280000D01*
X110994000Y-80514000D01*
X154182000Y-80514000D01*
X154182000Y-101350000D01*
X154182000Y-101350000D01*
G37*
X154182000Y-101350000D02*
X110994000Y-101350000D01*
X110994000Y-100206702D01*
X111995021Y-100206702D01*
X112086664Y-100492792D01*
X112706777Y-100744726D01*
X113376098Y-100740176D01*
X113973336Y-100492792D01*
X114064979Y-100206702D01*
X113030000Y-99171723D01*
X111995021Y-100206702D01*
X110994000Y-100206702D01*
X110994000Y-98736777D01*
X111345274Y-98736777D01*
X111349824Y-99406098D01*
X111597208Y-100003336D01*
X111883298Y-100094979D01*
X112918277Y-99060000D01*
X113141723Y-99060000D01*
X114176702Y-100094979D01*
X114462792Y-100003336D01*
X114710672Y-99393200D01*
X118967219Y-99393200D01*
X119222823Y-100011809D01*
X119695702Y-100485514D01*
X120313864Y-100742197D01*
X120983200Y-100742781D01*
X121601809Y-100487177D01*
X122075514Y-100014298D01*
X122311365Y-99446303D01*
X124225419Y-99446303D01*
X124274395Y-99696123D01*
X124768074Y-99889770D01*
X125298279Y-99879753D01*
X125741605Y-99696123D01*
X125790581Y-99446303D01*
X125008000Y-98663723D01*
X124225419Y-99446303D01*
X122311365Y-99446303D01*
X122332197Y-99396136D01*
X122332781Y-98726800D01*
X122161420Y-98312074D01*
X123670230Y-98312074D01*
X123680247Y-98842279D01*
X123863877Y-99285605D01*
X124113697Y-99334581D01*
X124896277Y-98552000D01*
X124113697Y-97769419D01*
X123863877Y-97818395D01*
X123670230Y-98312074D01*
X122161420Y-98312074D01*
X122077177Y-98108191D01*
X121627469Y-97657697D01*
X124225419Y-97657697D01*
X125008000Y-98440277D01*
X125790581Y-97657697D01*
X125741605Y-97407877D01*
X125247926Y-97214230D01*
X124717721Y-97224247D01*
X124274395Y-97407877D01*
X124225419Y-97657697D01*
X121627469Y-97657697D01*
X121604298Y-97634486D01*
X120986136Y-97377803D01*
X120316800Y-97377219D01*
X119698191Y-97632823D01*
X119224486Y-98105702D01*
X118967803Y-98723864D01*
X118967219Y-99393200D01*
X114710672Y-99393200D01*
X114714726Y-99383223D01*
X114710176Y-98713902D01*
X114462792Y-98116664D01*
X114176702Y-98025021D01*
X113141723Y-99060000D01*
X112918277Y-99060000D01*
X111883298Y-98025021D01*
X111597208Y-98116664D01*
X111345274Y-98736777D01*
X110994000Y-98736777D01*
X110994000Y-97913298D01*
X111995021Y-97913298D01*
X113030000Y-98948277D01*
X114064979Y-97913298D01*
X113973336Y-97627208D01*
X113353223Y-97375274D01*
X112683902Y-97379824D01*
X112086664Y-97627208D01*
X111995021Y-97913298D01*
X110994000Y-97913298D01*
X110994000Y-93053523D01*
X111366085Y-93053523D01*
X111624204Y-93664127D01*
X112096342Y-94129473D01*
X112686478Y-94373909D01*
X112951000Y-94236207D01*
X112951000Y-92789000D01*
X113109000Y-92789000D01*
X113109000Y-94236207D01*
X113373522Y-94373909D01*
X113963658Y-94129473D01*
X114435796Y-93664127D01*
X114693915Y-93053523D01*
X114556418Y-92789000D01*
X113109000Y-92789000D01*
X112951000Y-92789000D01*
X111503582Y-92789000D01*
X111366085Y-93053523D01*
X110994000Y-93053523D01*
X110994000Y-89154000D01*
X111317620Y-89154000D01*
X111317620Y-91186000D01*
X111365245Y-91439104D01*
X111514829Y-91671565D01*
X111629941Y-91750218D01*
X111624204Y-91755873D01*
X111366085Y-92366477D01*
X111503582Y-92631000D01*
X112951000Y-92631000D01*
X112951000Y-92611000D01*
X113109000Y-92611000D01*
X113109000Y-92631000D01*
X114556418Y-92631000D01*
X114693915Y-92366477D01*
X114435796Y-91755873D01*
X114430224Y-91750382D01*
X114531565Y-91685171D01*
X114687515Y-91456931D01*
X114731102Y-91241690D01*
X118087697Y-91241690D01*
X118137654Y-91426533D01*
X118433499Y-91924778D01*
X118897494Y-92271881D01*
X119459000Y-92415000D01*
X119809000Y-92415000D01*
X119809000Y-91011000D01*
X119967000Y-91011000D01*
X119967000Y-92415000D01*
X120317000Y-92415000D01*
X120878506Y-92271881D01*
X121342501Y-91924778D01*
X121638346Y-91426533D01*
X121688303Y-91241690D01*
X121618287Y-91126673D01*
X121952830Y-91126673D01*
X122102167Y-91488097D01*
X122378448Y-91764861D01*
X122739611Y-91914829D01*
X122776177Y-91914861D01*
X125045697Y-94184381D01*
X125001171Y-94291611D01*
X125000830Y-94682673D01*
X125150167Y-95044097D01*
X125426448Y-95320861D01*
X125787611Y-95470829D01*
X126178673Y-95471170D01*
X126540097Y-95321833D01*
X126700000Y-95162209D01*
X126700000Y-97235350D01*
X126604896Y-97253245D01*
X126372435Y-97402829D01*
X126216485Y-97631069D01*
X126169873Y-97861247D01*
X126152123Y-97818395D01*
X125902303Y-97769419D01*
X125119723Y-98552000D01*
X125902303Y-99334581D01*
X126152123Y-99285605D01*
X126169173Y-99242139D01*
X126209245Y-99455104D01*
X126358829Y-99687565D01*
X126587069Y-99843515D01*
X126858000Y-99898380D01*
X128158000Y-99898380D01*
X128411104Y-99850755D01*
X128643565Y-99701171D01*
X128799515Y-99472931D01*
X128854380Y-99202000D01*
X128854380Y-97902000D01*
X128806755Y-97648896D01*
X128657171Y-97416435D01*
X128428931Y-97260485D01*
X128316000Y-97237616D01*
X128316000Y-95670136D01*
X128474448Y-95828861D01*
X128835611Y-95978829D01*
X128872177Y-95978861D01*
X130902179Y-98008863D01*
X130787232Y-98285687D01*
X130786769Y-98815987D01*
X130989279Y-99306097D01*
X131363930Y-99681403D01*
X131853687Y-99884768D01*
X132383987Y-99885231D01*
X132874097Y-99682721D01*
X133249403Y-99308070D01*
X133279803Y-99234859D01*
X133321245Y-99455104D01*
X133470829Y-99687565D01*
X133699069Y-99843515D01*
X133970000Y-99898380D01*
X135270000Y-99898380D01*
X135523104Y-99850755D01*
X135755565Y-99701171D01*
X135911515Y-99472931D01*
X135966380Y-99202000D01*
X135966380Y-98348304D01*
X138335546Y-95979139D01*
X138370673Y-95979170D01*
X138732097Y-95829833D01*
X139008861Y-95553552D01*
X139158829Y-95192389D01*
X139159170Y-94801327D01*
X139009833Y-94439903D01*
X138733552Y-94163139D01*
X138372389Y-94013171D01*
X137981327Y-94012830D01*
X137619903Y-94162167D01*
X137343139Y-94438448D01*
X137193171Y-94799611D01*
X137193139Y-94836176D01*
X134823696Y-97205620D01*
X133970000Y-97205620D01*
X133716896Y-97253245D01*
X133484435Y-97402829D01*
X133328485Y-97631069D01*
X133280235Y-97869333D01*
X133250721Y-97797903D01*
X132876070Y-97422597D01*
X132406155Y-97227471D01*
X130015139Y-94836455D01*
X130015170Y-94801327D01*
X129865833Y-94439903D01*
X129589552Y-94163139D01*
X129228389Y-94013171D01*
X128837327Y-94012830D01*
X128475903Y-94162167D01*
X128316000Y-94321791D01*
X128316000Y-94314684D01*
X129603342Y-93027343D01*
X129720375Y-92852190D01*
X129778495Y-92765208D01*
X129840000Y-92456000D01*
X129840000Y-89408000D01*
X129778495Y-89098792D01*
X129603342Y-88836658D01*
X129341208Y-88661505D01*
X129323984Y-88658079D01*
X129376911Y-88392000D01*
X129264024Y-87824480D01*
X128942550Y-87343361D01*
X128611260Y-87122000D01*
X128942550Y-86900639D01*
X129264024Y-86419520D01*
X129376911Y-85852000D01*
X129348666Y-85710000D01*
X132765620Y-85710000D01*
X132765620Y-87010000D01*
X132813245Y-87263104D01*
X132962829Y-87495565D01*
X133191069Y-87651515D01*
X133462000Y-87706380D01*
X134315696Y-87706380D01*
X139400000Y-92790684D01*
X139400000Y-96667942D01*
X139254896Y-96695245D01*
X139022435Y-96844829D01*
X138866485Y-97073069D01*
X138811620Y-97344000D01*
X138811620Y-98744000D01*
X138859245Y-98997104D01*
X139008829Y-99229565D01*
X139237069Y-99385515D01*
X139508000Y-99440380D01*
X140908000Y-99440380D01*
X141161104Y-99392755D01*
X141393565Y-99243171D01*
X141549515Y-99014931D01*
X141604380Y-98744000D01*
X141604380Y-98317889D01*
X143824760Y-98317889D01*
X144034866Y-98826383D01*
X144423570Y-99215767D01*
X144931697Y-99426760D01*
X145481889Y-99427240D01*
X145990383Y-99217134D01*
X146379767Y-98828430D01*
X146562847Y-98387523D01*
X150228085Y-98387523D01*
X150486204Y-98998127D01*
X150958342Y-99463473D01*
X151548478Y-99707909D01*
X151813000Y-99570207D01*
X151813000Y-98123000D01*
X151971000Y-98123000D01*
X151971000Y-99570207D01*
X152235522Y-99707909D01*
X152825658Y-99463473D01*
X153297796Y-98998127D01*
X153555915Y-98387523D01*
X153418418Y-98123000D01*
X151971000Y-98123000D01*
X151813000Y-98123000D01*
X150365582Y-98123000D01*
X150228085Y-98387523D01*
X146562847Y-98387523D01*
X146590760Y-98320303D01*
X146591240Y-97770111D01*
X146381134Y-97261617D01*
X145992430Y-96872233D01*
X145484303Y-96661240D01*
X144934111Y-96660760D01*
X144425617Y-96870866D01*
X144036233Y-97259570D01*
X143825240Y-97767697D01*
X143824760Y-98317889D01*
X141604380Y-98317889D01*
X141604380Y-97344000D01*
X141556755Y-97090896D01*
X141407171Y-96858435D01*
X141178931Y-96702485D01*
X141016000Y-96669491D01*
X141016000Y-94488000D01*
X150179620Y-94488000D01*
X150179620Y-96520000D01*
X150227245Y-96773104D01*
X150376829Y-97005565D01*
X150491941Y-97084218D01*
X150486204Y-97089873D01*
X150228085Y-97700477D01*
X150365582Y-97965000D01*
X151813000Y-97965000D01*
X151813000Y-97945000D01*
X151971000Y-97945000D01*
X151971000Y-97965000D01*
X153418418Y-97965000D01*
X153555915Y-97700477D01*
X153297796Y-97089873D01*
X153292224Y-97084382D01*
X153393565Y-97019171D01*
X153549515Y-96790931D01*
X153604380Y-96520000D01*
X153604380Y-94488000D01*
X153556755Y-94234896D01*
X153407171Y-94002435D01*
X153178931Y-93846485D01*
X152908000Y-93791620D01*
X150876000Y-93791620D01*
X150622896Y-93839245D01*
X150390435Y-93988829D01*
X150234485Y-94217069D01*
X150179620Y-94488000D01*
X141016000Y-94488000D01*
X141016000Y-92456000D01*
X140954495Y-92146792D01*
X140954495Y-92146791D01*
X140779342Y-91884658D01*
X135518671Y-86623987D01*
X137778769Y-86623987D01*
X137981279Y-87114097D01*
X138355930Y-87489403D01*
X138845687Y-87692768D01*
X139375987Y-87693231D01*
X139380629Y-87691313D01*
X144304861Y-92615545D01*
X144304830Y-92650673D01*
X144454167Y-93012097D01*
X144730448Y-93288861D01*
X145091611Y-93438829D01*
X145482673Y-93439170D01*
X145844097Y-93289833D01*
X146120861Y-93013552D01*
X146270829Y-92652389D01*
X146271170Y-92261327D01*
X146121833Y-91899903D01*
X145845552Y-91623139D01*
X145484389Y-91473171D01*
X145447823Y-91473139D01*
X143159465Y-89184781D01*
X147913751Y-89184781D01*
X148132212Y-89713497D01*
X148536375Y-90118366D01*
X149064709Y-90337750D01*
X149636781Y-90338249D01*
X150165497Y-90119788D01*
X150570366Y-89715625D01*
X150789750Y-89187291D01*
X150790249Y-88615219D01*
X150571788Y-88086503D01*
X150167625Y-87681634D01*
X149639291Y-87462250D01*
X149067219Y-87461751D01*
X148538503Y-87680212D01*
X148133634Y-88084375D01*
X147914250Y-88612709D01*
X147913751Y-89184781D01*
X143159465Y-89184781D01*
X140444904Y-86470220D01*
X140445231Y-86096013D01*
X140242721Y-85605903D01*
X140241820Y-85605000D01*
X145360620Y-85605000D01*
X145360620Y-87115000D01*
X145408245Y-87368104D01*
X145557829Y-87600565D01*
X145786069Y-87756515D01*
X146057000Y-87811380D01*
X147567000Y-87811380D01*
X147820104Y-87763755D01*
X148052565Y-87614171D01*
X148208515Y-87385931D01*
X148219809Y-87330158D01*
X151033565Y-87330158D01*
X151095370Y-87590870D01*
X151627043Y-87802033D01*
X152199054Y-87793659D01*
X152688630Y-87590870D01*
X152750435Y-87330158D01*
X151892000Y-86471723D01*
X151033565Y-87330158D01*
X148219809Y-87330158D01*
X148263380Y-87115000D01*
X148263380Y-86095043D01*
X150449967Y-86095043D01*
X150458341Y-86667054D01*
X150661130Y-87156630D01*
X150921842Y-87218435D01*
X151780277Y-86360000D01*
X152003723Y-86360000D01*
X152862158Y-87218435D01*
X153122870Y-87156630D01*
X153334033Y-86624957D01*
X153325659Y-86052946D01*
X153122870Y-85563370D01*
X152862158Y-85501565D01*
X152003723Y-86360000D01*
X151780277Y-86360000D01*
X150921842Y-85501565D01*
X150661130Y-85563370D01*
X150449967Y-86095043D01*
X148263380Y-86095043D01*
X148263380Y-85605000D01*
X148222896Y-85389842D01*
X151033565Y-85389842D01*
X151892000Y-86248277D01*
X152750435Y-85389842D01*
X152688630Y-85129130D01*
X152156957Y-84917967D01*
X151584946Y-84926341D01*
X151095370Y-85129130D01*
X151033565Y-85389842D01*
X148222896Y-85389842D01*
X148215755Y-85351896D01*
X148066171Y-85119435D01*
X147837931Y-84963485D01*
X147567000Y-84908620D01*
X146057000Y-84908620D01*
X145803896Y-84956245D01*
X145571435Y-85105829D01*
X145415485Y-85334069D01*
X145360620Y-85605000D01*
X140241820Y-85605000D01*
X139868070Y-85230597D01*
X139378313Y-85027232D01*
X138848013Y-85026769D01*
X138357903Y-85229279D01*
X137982597Y-85603930D01*
X137779232Y-86093687D01*
X137778769Y-86623987D01*
X135518671Y-86623987D01*
X135458380Y-86563696D01*
X135458380Y-85710000D01*
X135410755Y-85456896D01*
X135261171Y-85224435D01*
X135032931Y-85068485D01*
X134762000Y-85013620D01*
X133462000Y-85013620D01*
X133208896Y-85061245D01*
X132976435Y-85210829D01*
X132820485Y-85439069D01*
X132765620Y-85710000D01*
X129348666Y-85710000D01*
X129264024Y-85284480D01*
X128942550Y-84803361D01*
X128611260Y-84582000D01*
X128942550Y-84360639D01*
X129264024Y-83879520D01*
X129376911Y-83312000D01*
X129264024Y-82744480D01*
X128942550Y-82263361D01*
X128461431Y-81941887D01*
X127893911Y-81829000D01*
X127122089Y-81829000D01*
X126554569Y-81941887D01*
X126073450Y-82263361D01*
X125751976Y-82744480D01*
X125639089Y-83312000D01*
X125751976Y-83879520D01*
X126073450Y-84360639D01*
X126404740Y-84582000D01*
X126073450Y-84803361D01*
X125751976Y-85284480D01*
X125639089Y-85852000D01*
X125751976Y-86419520D01*
X126073450Y-86900639D01*
X126404740Y-87122000D01*
X126073450Y-87343361D01*
X125751976Y-87824480D01*
X125639089Y-88392000D01*
X125751976Y-88959520D01*
X126073450Y-89440639D01*
X126404740Y-89662000D01*
X126073450Y-89883361D01*
X125751976Y-90364480D01*
X125639089Y-90932000D01*
X125751976Y-91499520D01*
X126073450Y-91980639D01*
X126554569Y-92302113D01*
X127122089Y-92415000D01*
X127893911Y-92415000D01*
X127939355Y-92405961D01*
X126936658Y-93408658D01*
X126761505Y-93670791D01*
X126761505Y-93670792D01*
X126746000Y-93748741D01*
X126730495Y-93670792D01*
X126730495Y-93670791D01*
X126555342Y-93408658D01*
X123919139Y-90772455D01*
X123919170Y-90737327D01*
X123769833Y-90375903D01*
X123493552Y-90099139D01*
X123132389Y-89949171D01*
X122741327Y-89948830D01*
X122379903Y-90098167D01*
X122103139Y-90374448D01*
X121953171Y-90735611D01*
X121952830Y-91126673D01*
X121618287Y-91126673D01*
X121547870Y-91011000D01*
X119967000Y-91011000D01*
X119809000Y-91011000D01*
X118228130Y-91011000D01*
X118087697Y-91241690D01*
X114731102Y-91241690D01*
X114742380Y-91186000D01*
X114742380Y-89154000D01*
X114694755Y-88900896D01*
X114545171Y-88668435D01*
X114316931Y-88512485D01*
X114046000Y-88457620D01*
X112014000Y-88457620D01*
X111760896Y-88505245D01*
X111528435Y-88654829D01*
X111372485Y-88883069D01*
X111317620Y-89154000D01*
X110994000Y-89154000D01*
X110994000Y-88392000D01*
X118019089Y-88392000D01*
X118131976Y-88959520D01*
X118453450Y-89440639D01*
X118794955Y-89668826D01*
X118433499Y-89939222D01*
X118137654Y-90437467D01*
X118087697Y-90622310D01*
X118228130Y-90853000D01*
X119809000Y-90853000D01*
X119809000Y-90833000D01*
X119967000Y-90833000D01*
X119967000Y-90853000D01*
X121547870Y-90853000D01*
X121688303Y-90622310D01*
X121638346Y-90437467D01*
X121342501Y-89939222D01*
X120981045Y-89668826D01*
X121322550Y-89440639D01*
X121644024Y-88959520D01*
X121756911Y-88392000D01*
X121644024Y-87824480D01*
X121322550Y-87343361D01*
X120981045Y-87115174D01*
X121342501Y-86844778D01*
X121638346Y-86346533D01*
X121688303Y-86161690D01*
X121547870Y-85931000D01*
X119967000Y-85931000D01*
X119967000Y-85951000D01*
X119809000Y-85951000D01*
X119809000Y-85931000D01*
X118228130Y-85931000D01*
X118087697Y-86161690D01*
X118137654Y-86346533D01*
X118433499Y-86844778D01*
X118794955Y-87115174D01*
X118453450Y-87343361D01*
X118131976Y-87824480D01*
X118019089Y-88392000D01*
X110994000Y-88392000D01*
X110994000Y-85179523D01*
X111620085Y-85179523D01*
X111878204Y-85790127D01*
X112350342Y-86255473D01*
X112940478Y-86499909D01*
X113205000Y-86362207D01*
X113205000Y-84915000D01*
X113363000Y-84915000D01*
X113363000Y-86362207D01*
X113627522Y-86499909D01*
X114217658Y-86255473D01*
X114689796Y-85790127D01*
X114947915Y-85179523D01*
X114810418Y-84915000D01*
X113363000Y-84915000D01*
X113205000Y-84915000D01*
X111757582Y-84915000D01*
X111620085Y-85179523D01*
X110994000Y-85179523D01*
X110994000Y-81280000D01*
X111571620Y-81280000D01*
X111571620Y-83312000D01*
X111619245Y-83565104D01*
X111768829Y-83797565D01*
X111883941Y-83876218D01*
X111878204Y-83881873D01*
X111620085Y-84492477D01*
X111757582Y-84757000D01*
X113205000Y-84757000D01*
X113205000Y-84737000D01*
X113363000Y-84737000D01*
X113363000Y-84757000D01*
X114810418Y-84757000D01*
X114947915Y-84492477D01*
X114689796Y-83881873D01*
X114684224Y-83876382D01*
X114785565Y-83811171D01*
X114941515Y-83582931D01*
X114996380Y-83312000D01*
X118019089Y-83312000D01*
X118131976Y-83879520D01*
X118453450Y-84360639D01*
X118794955Y-84588826D01*
X118433499Y-84859222D01*
X118137654Y-85357467D01*
X118087697Y-85542310D01*
X118228130Y-85773000D01*
X119809000Y-85773000D01*
X119809000Y-85753000D01*
X119967000Y-85753000D01*
X119967000Y-85773000D01*
X121547870Y-85773000D01*
X121688303Y-85542310D01*
X121638346Y-85357467D01*
X121342501Y-84859222D01*
X120981045Y-84588826D01*
X121322550Y-84360639D01*
X121644024Y-83879520D01*
X121756911Y-83312000D01*
X121644024Y-82744480D01*
X121322550Y-82263361D01*
X120841431Y-81941887D01*
X120273911Y-81829000D01*
X119502089Y-81829000D01*
X118934569Y-81941887D01*
X118453450Y-82263361D01*
X118131976Y-82744480D01*
X118019089Y-83312000D01*
X114996380Y-83312000D01*
X114996380Y-81280000D01*
X114948755Y-81026896D01*
X114799171Y-80794435D01*
X114570931Y-80638485D01*
X114300000Y-80583620D01*
X112268000Y-80583620D01*
X112014896Y-80631245D01*
X111782435Y-80780829D01*
X111626485Y-81009069D01*
X111571620Y-81280000D01*
X110994000Y-81280000D01*
X110994000Y-80514000D01*
X154182000Y-80514000D01*
X154182000Y-101350000D01*
M02*
