M48
;DRILL file {KiCad 4.0.1-stable} date 08/09/2016 11:32:44 PM
;FORMAT={-:-/ absolute / metric / decimal}
FMAT,2
METRIC,TZ
T1C0.400
T2C0.510
T3C0.800
T4C0.900
T5C1.001
T6C1.016
%
G90
G05
M71
T1
X122.936Y-90.932
X125.984Y-94.488
X129.032Y-94.996
X138.176Y-94.996
X145.288Y-92.456
T2
X146.812Y-86.36
X149.352Y-88.9
X151.892Y-86.36
T3
X119.888Y-83.312
X119.888Y-85.852
X119.888Y-88.392
X119.888Y-90.932
X125.008Y-98.552
X127.508Y-83.312
X127.508Y-85.852
X127.508Y-88.392
X127.508Y-90.932
X127.508Y-98.552
X132.12Y-98.552
X134.112Y-86.36
X134.62Y-98.552
X139.112Y-86.36
T4
X140.208Y-98.044
X145.208Y-98.044
T5
X113.03Y-99.06
X120.65Y-99.06
T6
X113.03Y-90.17
X113.03Y-92.71
X113.284Y-82.296
X113.284Y-84.836
X151.892Y-95.504
X151.892Y-98.044
T0
M30
